<?xml version="1.0" encoding="utf-8"?>
<!-- Generator: Adobe Illustrator 27.0.0, SVG Export Plug-In . SVG Version: 6.00 Build 0)  -->
<svg version="1.1" id="圖層_1" xmlns="http://www.w3.org/2000/svg" xmlns:xlink="http://www.w3.org/1999/xlink" x="0px" y="0px"
	 viewBox="0 0 100 100" style="enable-background:new 0 0 100 100;" xml:space="preserve">
<style type="text/css">
	.st0{fill:#666666;}
	.st1{fill:#888888;}
</style>
<g>
	<path class="st0" d="M67.89,90.66c1.3-1.23,1.13-3.35,1.86-6.68c0.26-1.17,0.59-6.49-0.03-13c-0.19-1.97-1.01-4.23-1.01-4.23
		c0-31.61,0.31-36.72,0.31-36.72c1.71-5.07,0.27-14.92,0-15.8c0,0,0-0.89-0.76-2.62c-0.76-1.73-2.08-2.03-4.28-3.87
		c-2.2-1.85-8.12-2.8-8.12-2.8c-4.24,0-7.48,0-11.71,0c0,0-5.92,0.95-8.12,2.8c-2.2,1.85-3.53,2.15-4.28,3.87
		c-0.76,1.73-0.76,2.62-0.76,2.62c-0.27,0.88-1.71,10.73,0,15.8c0,0,0.31,4.69,0.31,36.72c-2.38,6.57-1.42,21.79,0.82,23.91
		c1.07,1.01,4.28,2.86,5.42,3.16c1.13,0.3,4.58,1.1,7.27,1.15C53.72,95.12,62.58,95.68,67.89,90.66z"/>
	<g>
		<path class="st1" d="M33.37,51.59c0,0.19,0.09,0.37,0.24,0.48l1.6,1.11c0.36,0.25,0.85-0.02,0.85-0.48
			c0-5.36,0.27-6.63-1.35-13.65c-0.59-2.57-1.35-4.2-1.35-4.2V51.59z"/>
		<path class="st1" d="M34.93,71.03c1.44,0.45,1.23-4.72,1.14-14.47c0-0.26-0.16-0.48-0.39-0.54l-1.7-0.44
			c-0.31-0.08-0.61,0.19-0.61,0.55v14.34C33.37,71.2,34.19,71.03,34.93,71.03z"/>
		<path class="st1" d="M35.42,82.89c0.57-0.82,0.85-1.53,0.94-2.98c0.09-1.45,0-7.91,0-7.91l-2.52,2.73
			C34.27,80.2,34.37,84.41,35.42,82.89z"/>
		<path class="st1" d="M34.85,10.22c4.07-2.37,5.39-2.72,5.3-3.32c-0.09-0.58-0.28-1.14-0.83-0.95c-2.76,0.97-3.26,1.35-4.99,2.95
			c-0.1,0.09-0.15,0.21-0.15,0.33C34.17,9.66,34.22,10.59,34.85,10.22z"/>
		<path class="st0" d="M33.78,33.23l-0.25-1.2c-3.06-0.72-5.34,0.42-5.39,1.3c-0.05,0.98-0.52,1.85,4.06,0.48L33.78,33.23z"/>
		<path class="st1" d="M39.54,81.64c1.25,0,0.87,1.36,0.87-35.08c0-0.46-0.39-0.83-0.87-0.83c-0.48,0-0.87,0.37-0.87,0.83
			C38.66,83.5,38.29,81.64,39.54,81.64z"/>
		<path class="st1" d="M32.37,47.84c-0.2,0-0.37,0.16-0.37,0.35l0,2.66c0,0.19,0.17,0.35,0.37,0.35c0.2,0,0.37-0.16,0.37-0.35
			l0-2.66C32.74,48,32.58,47.84,32.37,47.84z"/>
		<path class="st1" d="M32.37,65.48c-0.2,0-0.37,0.16-0.37,0.35l0,2.66c0,0.19,0.17,0.35,0.37,0.35c0.2,0,0.37-0.16,0.37-0.35
			l0-2.66C32.74,65.64,32.58,65.48,32.37,65.48z"/>
		<path class="st1" d="M65.59,28.8c-10.16-3.52-21.02-3.52-31.18,0l2.13,12.45c0.18,1.03,1.26,1.7,2.32,1.41
			c0.85-0.23,2-0.45,3.54-0.59c6.19-0.54,14.82-0.47,18.75,0.59c1.06,0.28,2.14-0.38,2.32-1.41L65.59,28.8z"/>
		<path class="st1" d="M60.99,85.99c-0.79,0.1-1.97,0.25-3.43,0.43c-1.4,0.18-9.69,0.69-18.55-0.43c-0.63-0.08-1.19,0.36-1.23,0.96
			c-0.14,2.03-0.46,2.9,0.32,3.4c1.23,0.78,4.38,2.62,6.61,2.65c1.24,0.02,8.94,0.03,10.58,0c2.23-0.04,5.38-1.88,6.61-2.65
			c0.32-0.21,0.51-0.56,0.48-0.92l-0.17-2.47C62.17,86.35,61.61,85.92,60.99,85.99z"/>
		<path class="st1" d="M63.93,52.7c0,0.46,0.49,0.73,0.85,0.48l1.6-1.11c0.15-0.11,0.24-0.28,0.24-0.48V34.85
			c-1.23,2.65-1.97,7.07-2.67,11.45C63.92,46.56,63.93,52.44,63.93,52.7z"/>
		<path class="st1" d="M66.02,55.59l-1.7,0.44c-0.22,0.06-0.38,0.28-0.39,0.54c-0.09,9.75-0.31,14.92,1.14,14.47h1.06
			c0.81,0,0.5-0.47,0.5-14.9C66.63,55.77,66.33,55.51,66.02,55.59z"/>
		<path class="st1" d="M64.58,82.89c1.05,1.51,1.15-2.69,1.57-8.16L63.64,72C63.51,80.39,63.47,81.29,64.58,82.89z"/>
		<path class="st1" d="M65.15,10.22c0.64,0.37,0.68-0.56,0.67-0.99c0-0.13-0.05-0.24-0.15-0.33c-1.73-1.6-2.23-1.98-4.99-2.95
			C60.4,5.85,60.09,6,60.01,6.27C59.59,7.65,59.63,7,65.15,10.22z"/>
		<path class="st0" d="M71.86,33.33c-0.04-0.88-2.32-2.02-5.39-1.3l-0.25,1.2l1.57,0.58C72.37,35.18,71.9,34.31,71.86,33.33z"/>
		<path class="st1" d="M60.46,81.64c1.25,0,0.87,1.86,0.87-35.08c0-0.46-0.39-0.83-0.87-0.83s-0.87,0.37-0.87,0.83
			C59.59,83.01,59.22,81.64,60.46,81.64z"/>
		<path class="st1" d="M67.63,47.84c-0.2,0-0.37,0.16-0.37,0.35l0,2.66c0,0.19,0.17,0.35,0.37,0.35c0.2,0,0.37-0.16,0.37-0.35
			l0-2.66C68,48,67.83,47.84,67.63,47.84z"/>
		<path class="st1" d="M67.63,65.48c-0.2,0-0.37,0.16-0.37,0.35l0,2.66c0,0.19,0.17,0.35,0.37,0.35c0.2,0,0.37-0.16,0.37-0.35
			l0-2.66C68,65.64,67.83,65.48,67.63,65.48z"/>
		<path class="st1" d="M63.95,91.51c-1.26,1.12-1.24,0.99-0.61,1.98c0.61-0.28,1.35-0.68,2.08-1.11l-0.87-0.85
			C64.4,91.36,64.13,91.35,63.95,91.51z"/>
		<path class="st1" d="M34.57,92.38c0.73,0.43,1.48,0.83,2.08,1.11c0.31-0.47,0.65-0.86,0.23-1.24
			C35.58,91.1,35.88,91.09,34.57,92.38z"/>
	</g>
</g>
</svg>
