<?xml version="1.0" encoding="utf-8"?>
<!-- Generator: Adobe Illustrator 27.0.0, SVG Export Plug-In . SVG Version: 6.00 Build 0)  -->
<svg version="1.1" id="圖層_1" xmlns="http://www.w3.org/2000/svg" xmlns:xlink="http://www.w3.org/1999/xlink" x="0px" y="0px"
	 viewBox="0 0 54 24" style="enable-background:new 0 0 54 24;" xml:space="preserve">
<style type="text/css">
	.st0{fill:#888888;}
	.st1{fill:#28292A;stroke:#666666;stroke-width:0.5;stroke-miterlimit:10;}
	.st2{fill:#383A3E;}
</style>
<g>
	<path class="st0" d="M50.91,15.46c0.13,0.18,0.22,0.14,0.42,0c0.2-0.14,0.34-0.69,0.34-0.69c0-2.21,0-3.89,0-6.09
		c0,0-0.15-0.54-0.34-0.68c-0.2-0.14-0.29-0.19-0.42,0c-0.13,0.18-0.11,1.36-0.11,1.36C50.8,13.34,50.73,15.22,50.91,15.46z"/>
	<path class="st1" d="M48.27,20.14c2.5-0.82,3.4-4.81,3.4-4.81l0-3.6l0-3.6c0,0-0.9-3.99-3.39-4.81c-6.21-2.05-9.46-0.67-11.9-0.78
		c-1.43-0.06-6.31-0.06-11.05-0.05l-0.07-0.02c0,0.01,0,0.02,0,0.03c-3.92,0-7.72,0.01-9.39-0.01c0,0-0.01-0.01-0.01-0.02
		l-0.05,0.02c-0.32-0.01-0.56-0.01-0.7-0.02c-1.34-0.08-4.17-0.17-5.28,0.04s-3.78,0.6-4.39,0.91S3.02,4.79,2.8,7.79
		C1.86,20.92,4.46,19.93,9.81,20.98c1.24,0.24,3.25,0.1,6.01,0.03l0.02,0.01c0-0.01,0,0,0.01-0.01c1.1-0.03,2.33-0.05,3.68-0.03
		c0,0,2.58,0,5.72,0.01c0,0.01,0,0.01,0.01,0.02l0.06-0.02c4.41,0,9.91,0,11.06-0.05c1.98-0.08,2.23,0.26,4.47,0.35
		C43.08,21.36,45.78,20.96,48.27,20.14z"/>
	<g>
		<path class="st2" d="M12.5,4.59c1.03,0.33,2.76,0.73,5.23,0.85c12.41,0.62,13.04-0.1,17.66-1.63c-0.05-0.01-0.41-0.11-0.46-0.11
			C22.33,3.34,19.76,3.5,12.56,4.03C12.25,4.05,12.2,4.5,12.5,4.59z"/>
		<path class="st2" d="M6.11,3.99l-0.53-0.2C4.4,3.87,3.73,6.7,3.5,7.85l0.17,0.14l0.06,0.45l0.32,0C4.63,6.03,5.07,4.75,6.11,3.99z
			"/>
		<path class="st2" d="M46.45,3.4c0,0,0.81,0.07,2.48,1.67c0.65,0.62,1.6,2.43,1.6,2.43c0.14-0.4,0.32-0.72,0.12-1.07
			c-1.14-2-1.04-1.94-2.93-3.09c-0.62-0.37-1.39-0.2-1.39-0.2L46.45,3.4z"/>
		<path class="st2" d="M28.54,2.78c0-0.28-0.47-0.17-1.59-0.17c-0.1,0-0.19,0.07-0.18,0.17c0,0.28,0.47,0.17,1.59,0.17
			C28.46,2.95,28.54,2.87,28.54,2.78z"/>
		<path class="st2" d="M18.43,2.78c0-0.28-0.47-0.17-1.59-0.17c-0.1,0-0.19,0.07-0.18,0.17c0,0.28,0.47,0.17,1.59,0.17
			C18.34,2.95,18.43,2.88,18.43,2.78z"/>
		<path class="st2" d="M40.19,5.3c3.3,0.92,8.83,2.06,9.31,2.06c0.58,0-0.43-0.57-0.43-0.57c-1.9-0.56-6.78-1.66-11.13-2.38
			C37.55,4.34,38.17,4.73,40.19,5.3z"/>
		<path class="st2" d="M8.64,17.47c0.12,0.34,0.27,0.62,0.44,0.8c0.03,0.04,0.05,0.05,0.05,0.05l0,0l0,0l0.66-0.08l5.63-0.66l0,0
			l0,0c-0.09-0.12-0.16-0.26-0.23-0.4c-0.02-0.05-0.04-0.09-0.06-0.14c-0.04-0.11-0.08-0.22-0.12-0.34
			c-0.02-0.06-0.04-0.11-0.05-0.17c-0.03-0.1-0.05-0.22-0.08-0.33c-0.14-0.65-0.18-1.32-0.2-1.73c-0.17-2.6-0.13-2.67-0.13-2.67
			S14.5,11.6,14.68,9c0.11-1.77,0.07-1.21,0.36-2.32c0.12-0.43,0.38-0.79,0.38-0.79l-6.3-0.74C8.67,5.57,8.4,6.56,8.24,7.76l-0.01,0
			C8.21,7.93,8.19,8.14,8.17,8.4c-0.06,0.69-0.09,1.42-0.11,2.15c-0.04,1.37-0.02,2.97,0.1,4.38c0,0,0,0,0,0.01
			C8.23,16.12,8.43,16.94,8.64,17.47z"/>
		<path class="st2" d="M35.4,19.64c0,0-2.43-0.8-4.15-1.32c-2.39-0.72-9.06-0.51-12.46-0.36c-0.25,0.01-0.51,0.02-0.77,0.04
			c-0.11,0-0.21,0.01-0.3,0.01c-0.11,0-0.21,0.02-0.32,0.02c-0.04,0-0.09,0-0.14,0.01c-0.66,0.05-1.27,0.11-1.81,0.18
			c-0.04,0-0.09,0.01-0.13,0.02c-0.28,0.04-0.55,0.09-0.8,0.13c-0.12,0.02-0.23,0.05-0.35,0.07c-0.19,0.04-0.37,0.08-0.55,0.12
			c-0.09,0.02-0.17,0.04-0.25,0.06c-0.34,0.08-0.63,0.17-0.88,0.25c-0.3,0.1-0.25,0.54,0.07,0.56c3.53,0.26,7.17,0.5,10.11,0.52
			l-0.06-0.05C29.83,20.04,34.98,19.75,35.4,19.64z"/>
		<path class="st2" d="M4.04,15.03l-0.32,0l-0.06,0.45L3.5,15.61c0.23,1.15,0.9,3.98,2.08,4.06l0.53-0.2
			C5.07,18.71,4.63,17.43,4.04,15.03z"/>
		<path class="st2" d="M46.84,19.95c-0.38,0.11-0.38,0.11-0.38,0.11l-0.12,0.26c0,0,0.78,0.18,1.39-0.2c0.61-0.37,1.6-0.94,1.98-1.5
			c0.27-0.4,0.71-1.18,0.95-1.59c0.2-0.35,0.02-0.67-0.11-1.07c0,0-0.97,1.8-1.6,2.43C48.29,19.01,47.23,19.83,46.84,19.95z"/>
		<path class="st2" d="M28.54,20.69c0-0.09-0.09-0.17-0.18-0.17c-1.12,0-1.59-0.11-1.59,0.17c0,0.09,0.09,0.17,0.18,0.17
			C28.08,20.86,28.54,20.97,28.54,20.69z"/>
		<path class="st2" d="M18.43,20.69c0-0.09-0.09-0.17-0.18-0.17c-1.12,0-1.59-0.11-1.59,0.17c0,0.09,0.09,0.17,0.18,0.17
			C17.96,20.86,18.43,20.97,18.43,20.69z"/>
		<path class="st2" d="M46.33,16.72c-6.62,1.28-9.14,2.46-8.4,2.34c4.35-0.73,9.24-1.83,11.14-2.39
			C51.12,15.53,47.66,16.46,46.33,16.72z"/>
		<path class="st2" d="M36.99,4.13l-6.04,1.8c0.03,0.08,0.05,0.18,0.09,0.26c0.2,0.73,0.34,1.94,0.41,3.33
			c0.07,1.73,0.02,3.57-0.02,4.6l0.01,0.01c-0.08,1.48-0.24,2.75-0.49,3.41l6.04,1.8c0,0,0,0,0.33-0.3l0,0l0,0
			c0.02-0.02,0.04-0.04,0.07-0.07c2.64-2.38,2.7-12.04,0-14.48C36.99,4.13,36.99,4.13,36.99,4.13z"/>
	</g>
	<path class="st1" d="M36.26,3.09c-0.48-1.17-2.46-2.67-2.09-1.32c0.46,0.58,0.11,0.06,1.31,2.04C35.79,4.32,36.52,3.69,36.26,3.09z
		"/>
	<path class="st1" d="M36.26,20.38c0.25-0.62-0.47-1.23-0.79-0.71c-1.26,2.09-1.31,2.03-1.31,2.03
		C33.81,23.04,35.79,21.54,36.26,20.38z"/>
</g>
</svg>
