<?xml version="1.0" encoding="utf-8"?>
<!-- Generator: Adobe Illustrator 27.0.0, SVG Export Plug-In . SVG Version: 6.00 Build 0)  -->
<svg version="1.1" id="圖層_1" xmlns="http://www.w3.org/2000/svg" xmlns:xlink="http://www.w3.org/1999/xlink" x="0px" y="0px"
	 viewBox="0 0 73 96" style="enable-background:new 0 0 73 96;" xml:space="preserve">
<style type="text/css">
	.st0{fill:#888888;}
	.st1{fill:#28292A;stroke:#666666;stroke-width:0.5;stroke-miterlimit:10;}
	.st2{fill:#383A3E;}
</style>
<g>
	<path class="st0" d="M53.82,92.88c-0.19,0.41-0.02,0.53,0.42,0.73c0.44,0.2,1.53-0.09,1.53-0.09c3.82-2.21,6.73-3.89,10.55-6.09
		c0,0,0.79-0.8,0.84-1.28c0.05-0.48,0.03-0.69-0.42-0.73c-0.45-0.04-2.47,1.18-2.47,1.18C57.38,90.57,54.06,92.34,53.82,92.88z"/>
	<path class="st1" d="M43.07,93c3.92,3.5,11.73,1.07,11.73,1.07l6.24-3.6l6.23-3.6c0,0,6-5.55,4.94-10.69
		c-2.65-12.8-8.29-17.05-10.55-21.4c-1.32-2.54-6.21-10.98-10.96-19.19l-0.04-0.15c-0.01,0.01-0.03,0.01-0.05,0.02
		c-3.92-6.78-7.74-13.35-9.36-16.27c0.01,0,0.01-0.02,0.02-0.04l-0.08-0.07c-0.31-0.56-0.54-0.99-0.67-1.23
		c-1.19-2.4-3.87-7.4-5.36-9.11s-4.83-5.95-5.96-6.69s-4.8-2.78-10.21-0.16C-4.69,13.38-0.39,16.9,3.16,27.21
		c0.82,2.39,3.07,5.73,5.96,10.45l0.01,0.04c0.01-0.01,0.01,0,0.02,0c1.16,1.88,2.41,3.98,3.73,6.34c0,0,2.57,4.47,5.7,9.92
		c-0.01,0.01-0.02,0.02-0.03,0.03l0.09,0.08c4.4,7.64,9.92,17.17,11.16,19.11c2.12,3.34,1.78,4.13,3.87,8.09S39.16,89.51,43.07,93z"
		/>
	<g>
		<path class="st2" d="M34.23,15.49c0.46,2.12,1.5,5.51,3.75,9.91c11.34,22.11,13.21,22.49,20.48,28.97
			c-0.03-0.09-0.22-0.82-0.27-0.91c-11.96-22.2-14.8-26.49-22.92-38.43C34.92,14.52,34.1,14.88,34.23,15.49z"/>
		<path class="st2" d="M28.88,3.81L28.7,2.69c-1.32-1.96-6.89-0.29-9.11,0.46l-0.08,0.44l-0.72,0.55l0.31,0.55
			C23.87,3.3,26.52,2.78,28.88,3.81z"/>
		<path class="st2" d="M70.25,73.1c0,0,0.69,1.48-0.42,5.97c-0.43,1.74-2.6,5.2-2.6,5.2c0.82-0.16,1.56-0.17,1.97-0.87
			c2.32-3.97,2.32-3.75,2.43-8.16c0.03-1.44-1.04-2.61-1.04-2.61L70.25,73.1z"/>
		<path class="st2" d="M53.41,41.46c0.48-0.28-0.17-0.98-1.29-2.92c-0.1-0.17-0.31-0.25-0.48-0.15c-0.48,0.28,0.17,0.98,1.29,2.92
			C53.04,41.49,53.25,41.56,53.41,41.46z"/>
		<path class="st2" d="M43.3,23.94c0.48-0.28-0.17-0.98-1.29-2.92c-0.1-0.17-0.31-0.25-0.48-0.15c-0.48,0.28,0.17,0.98,1.29,2.92
			C42.92,23.97,43.13,24.04,43.3,23.94z"/>
		<path class="st2" d="M60.7,64.16c1.71,6.64,5.27,17.36,5.74,18.18c0.58,1,0.55-1.31,0.55-1.31c-0.93-3.85-3.91-13.4-7-21.66
			C59.71,58.62,59.66,60.1,60.7,64.16z"/>
		<path class="st2" d="M8.07,21.68c-0.47,0.56-0.8,1.09-0.94,1.57c-0.03,0.09-0.04,0.14-0.04,0.14l0,0l0,0l0.8,1.07l6.78,9.09l0,0
			l0,0c0.12-0.28,0.28-0.54,0.46-0.8c0.06-0.08,0.12-0.16,0.18-0.24c0.14-0.18,0.29-0.36,0.46-0.55c0.08-0.09,0.16-0.18,0.25-0.26
			c0.15-0.16,0.32-0.31,0.49-0.47c0.99-0.9,2.11-1.63,2.8-2.09c4.33-2.89,4.5-2.9,4.5-2.9s0.28-0.27,4.96-2.56
			c3.17-1.57,2.16-1.08,4.38-1.69c0.86-0.23,1.76-0.13,1.76-0.13l-5.02-11.64c-1.19-0.38-3.17,0.13-5.4,1.06l-0.01-0.02
			c-0.31,0.14-0.71,0.32-1.17,0.54c-1.26,0.58-2.55,1.26-3.83,1.95c-2.41,1.3-5.17,2.93-7.49,4.55c-0.01,0-0.01,0-0.02,0.01
			C9.98,19.62,8.78,20.79,8.07,21.68z"/>
		<path class="st2" d="M31.06,70.2c0,0-1.04-5.01-1.86-8.51c-1.14-4.86-8.18-16.19-11.84-21.93c-0.27-0.43-0.54-0.86-0.83-1.29
			c-0.11-0.18-0.22-0.35-0.32-0.5c-0.12-0.19-0.24-0.35-0.35-0.53c-0.05-0.07-0.1-0.16-0.16-0.23c-0.74-1.1-1.45-2.09-2.12-2.96
			c-0.05-0.07-0.1-0.14-0.16-0.21c-0.35-0.44-0.7-0.87-1.03-1.26c-0.15-0.18-0.31-0.35-0.47-0.54c-0.26-0.3-0.51-0.57-0.76-0.83
			c-0.12-0.13-0.24-0.25-0.36-0.38c-0.48-0.5-0.92-0.92-1.31-1.27c-0.47-0.43-1.19,0.11-0.91,0.68c3.07,6.37,6.3,12.91,9.22,18.03
			l0.03-0.15C24.8,60.95,30.46,69.58,31.06,70.2z"/>
		<path class="st2" d="M7.7,11.28l-0.31-0.55l-0.83,0.35l-0.42-0.15c-1.76,1.55-5.99,5.54-4.95,7.66l0.88,0.72
			C2.34,16.74,4.12,14.7,7.7,11.28z"/>
		<path class="st2" d="M41.97,90.33c-0.58-0.55-0.58-0.55-0.58-0.55l-0.57,0.06c0,0,0.47,1.52,1.74,2.21
			c1.26,0.69,3.23,1.84,4.58,1.92c0.96,0.06,2.75,0.05,3.7,0.05c0.81,0,1.18-0.64,1.74-1.27c0,0-4.09,0.13-5.81-0.35
			C45.04,91.89,42.56,90.88,41.97,90.33z"/>
		<path class="st2" d="M22.39,59.37c0.16-0.1,0.21-0.32,0.11-0.49c-1.12-1.95-1.39-2.86-1.88-2.58c-0.16,0.1-0.21,0.32-0.11,0.49
			C21.63,58.74,21.91,59.65,22.39,59.37z"/>
		<path class="st2" d="M12.28,41.85c0.16-0.1,0.21-0.32,0.11-0.49c-1.12-1.95-1.39-2.86-1.88-2.58c-0.16,0.1-0.21,0.32-0.11,0.49
			C11.52,41.22,11.79,42.13,12.28,41.85z"/>
		<path class="st2" d="M47.06,86.22C38.22,76.03,33.65,72.85,34.61,74c5.62,6.81,12.4,14.17,15.27,16.9
			C53.91,93.32,48.83,88.25,47.06,86.22z"/>
		<path class="st2" d="M59.53,57.45l-9.16-8.66c-0.11,0.13-0.25,0.27-0.37,0.41c-1.06,1.08-3.03,2.53-5.35,4.04
			c-2.93,1.86-6.16,3.61-7.99,4.57l-0.01,0.03c-2.64,1.34-5,2.33-6.4,2.57l2.92,12.26c0,0,0.01,0,0.85,0.28l0,0l0,0
			c0.06,0.02,0.11,0.04,0.19,0.06c6.77,2.19,23.55-7.36,25.07-14.48C59.53,57.45,59.53,57.45,59.53,57.45z"/>
	</g>
	<path class="st1" d="M60.6,55.14c1.54-2,2.16-6.92,0.2-4.94c-0.55,1.37,0.01,0.25-2.22,4.3C58,55.56,59.8,56.19,60.6,55.14z"/>
	<path class="st1" d="M30.65,72.43c1.32-0.18,1.66-2.05,0.44-2.08c-4.88-0.1-4.83-0.23-4.83-0.23
		C23.58,70.84,28.16,72.77,30.65,72.43z"/>
</g>
</svg>
