<?xml version="1.0" encoding="utf-8"?>
<!-- Generator: Adobe Illustrator 27.0.0, SVG Export Plug-In . SVG Version: 6.00 Build 0)  -->
<svg version="1.1" id="圖層_1" xmlns="http://www.w3.org/2000/svg" xmlns:xlink="http://www.w3.org/1999/xlink" x="0px" y="0px"
	 viewBox="0 0 100 100" style="enable-background:new 0 0 100 100;" xml:space="preserve">
<style type="text/css">
	.st0{fill:#666666;}
	.st1{fill:#888888;}
	.st2{fill:none;}
</style>
<g>
	<path class="st0" d="M50,90.47c17.37-0.9,16.56,0.33,17.76-33.85c0.28-7.86,0.27-33.42-2.42-41.11c-0.65-1.86-2.7-4-5.21-4.93
		c-3.76-1.39-16.52-1.39-20.28,0c-2.51,0.93-4.56,3.07-5.21,4.93c-3.91,11.17-3.01,66.18,0.65,70.96c1.21,1.58,3.97,3.26,5.75,3.44
		C42.84,90.1,50,90.47,50,90.47z"/>
	<g>
		<path class="st1" d="M36.4,75.07c1.09-0.1,2.44-0.47,2.58-1.92c0.24-2.48,0.53-19.2-0.19-23.48c-0.42-2.49-1.53-10.44-2.16-12.52
			c-0.63-2.08-2.26-2.13-2.26-2.13c-0.65,40.2-0.17,23.75,0,37.61C34.37,72.63,35.3,75.17,36.4,75.07z"/>
		<path class="st1" d="M38.16,85.78c-0.93-0.37-1.56-1.19-4.3-3.98c0.84,4.18,1.99,5.32,4.72,6.74c1.16,0.6,2.37,0.77,2.95,0.56
			c0.58-0.21-0.19-1.02-0.58-1.67C40.56,86.78,39.16,86.17,38.16,85.78z"/>
		<path class="st1" d="M36.65,31.86l2.31,10.17c0.35,1.55,1.21,0.59,11.05,0.59c1.36,0,3.31,0.03,5.33,0.1
			c1.84,0.1,3.1,0.2,3.97,0.2c0.16,0.01,0.33,0.02,0.49,0.03c0.39,0.03,0.65,0,0.89-0.31c0.18-0.14,0.3-0.33,0.36-0.61l0.14-0.61
			c0.42-1.46,0.96-4.24,2.16-9.49l0.01-0.06c0.04-0.16,0.04-0.31,0.01-0.46c-0.03-0.15-0.08-0.29-0.16-0.42
			c-0.15-0.26-0.41-0.45-0.72-0.53c-0.24-0.06-0.54-0.13-0.86-0.21c-0.82-0.2-1.62-0.38-2.42-0.55c-0.57-0.12-1.11-0.23-1.5-0.3
			l-0.02,0.01c-2.45-0.42-4.92-0.64-7.7-0.6c-4.52-0.06-8.24,0.56-12.49,1.64C36.88,30.61,36.51,31.23,36.65,31.86z"/>
		<path class="st1" d="M50.07,28.8h-0.14c0.02,0,0.04,0,0.07,0C50.02,28.81,50.05,28.8,50.07,28.8z"/>
		<path class="st1" d="M61.84,85.78c-1,0.4-2.39,1-2.79,1.65c-0.4,0.65-1.16,1.46-0.58,1.67c1.58,0.57,5.12-1.52,6.05-2.91
			c0.6-0.91,1-1.86,1.23-2.72c0.23-0.86,0.4-1.67,0.4-1.67C63.39,84.59,62.77,85.41,61.84,85.78z"/>
		<path class="st1" d="M35.77,17.38c1.35-0.54,3-0.86,3.72-1.93c0.72-1.07,1.65-2.33,1.91-3.15c0.26-0.82-0.08-1.22-0.34-1.22
			c-2.65,0-3.85,0.59-6.08,5.05C34.98,16.13,34.42,17.92,35.77,17.38z"/>
		<path class="st1" d="M60.51,15.45c0.72,1.07,2.37,1.4,3.72,1.93c1.35,0.54,0.79-1.25,0.79-1.25c-2.23-4.46-3.42-5.05-6.08-5.05
			c-0.26,0-0.6,0.39-0.34,1.22C58.86,13.12,59.79,14.37,60.51,15.45z"/>
		<path class="st1" d="M59.81,84.88c0.21-0.09,0.42-0.19,0.63-0.29c0.94-0.43,1.88-0.92,2.86-1.48c0.46-0.26,0.75-0.43,0.75-0.43
			l-2.48-3.38c-1.23,0.41-2.25,0.75-3.17,1.02c-1.38,0.41-2.62,0.71-3.97,0.9c-0.1,0.01-0.2,0.03-0.29,0.04
			c-0.06,0.01-0.11,0.01-0.17,0.02c-1.01,0.11-2.09,0.17-3.43,0.19l-0.01,0.01c-0.28,0-0.57,0-0.87-0.01
			c-4.23,0.08-6.8-0.67-11.25-2.17l-2.48,3.38c3.59,2.15,6.62,3.41,10.57,3.8c0.38,0.04,0.76,0.07,1.11,0.1c0.02,0,0.05,0,0.07,0.01
			c0.01,0,0.03,0,0.04,0c0.86,0.05,1.6,0.05,2.05,0.02c0.14-0.01,0.21-0.02,0.21-0.02s0.11,0.01,0.33,0.02
			c0.96,0.08,2.08,0.01,3.16-0.13c1.12-0.11,2.18-0.29,3.19-0.55c0.12-0.03,0.26-0.05,0.36-0.08c0.81-0.17,1.78-0.54,2.75-0.97
			C59.8,84.88,59.81,84.88,59.81,84.88z"/>
		<path class="st1" d="M64,35.92c-0.01,0.01-0.02,0.02-0.03,0.04c-0.01,0.01-0.01,0.02-0.02,0.03c-0.23,0.29-0.44,0.66-0.59,1.16
			c-0.05,0.18-0.11,0.42-0.18,0.68c-0.37,1.37-0.63,3.19-0.96,5.31c-0.42,2.6-0.81,5.27-1.02,6.53c-0.42,2.49-0.42,8.41-0.46,10.75
			c-0.05,2.34,0.14,11.27,0.28,12.73s1.49,1.82,2.58,1.92s2.02-2.44,2.02-2.44c0.16-13.03,0.59,0.3,0.08-32.3l0,0l-0.09-5.3
			c0,0-0.05,0-0.12,0.01C64.87,35.09,64.38,35.39,64,35.92z"/>
	</g>
	<path class="st2" d="M49.93,28.8c4.59-0.07,8.34,0.56,12.56,1.64c0.62,0.16,1,0.79,0.86,1.41c-2.4,10.58-2.2,11.19-3.56,11.09
		c-3.26-0.25-7.49-0.33-9.87-0.33h0.14c-9.9,0-10.76,0.97-11.11-0.59l-2.31-10.17c-0.14-0.63,0.24-1.26,0.86-1.41
		c4.27-1.09,8.01-1.71,12.56-1.64"/>
	<g>
		<path class="st0" d="M35.04,35.01c-0.28-0.35-0.68-0.14-1.67,0c-1,0.14-2.13,0.7-3.03,1.05c-0.91,0.35-1.12,1.08-1.08,1.5
			s0.7,0.17,1.22,0c0.59-0.2,2.75-0.88,3.38-0.94c0.77-0.07,1.08,0,1.33-0.31S35.32,35.36,35.04,35.01z"/>
		<path class="st0" d="M69.67,36.06c-0.91-0.35-2.04-0.91-3.03-1.05c-1-0.14-1.4-0.35-1.67,0c-0.28,0.35-0.38,0.98-0.14,1.29
			c0.24,0.31,0.56,0.24,1.33,0.31c0.63,0.06,2.79,0.74,3.38,0.94c0.52,0.17,1.19,0.42,1.22,0C70.79,37.14,70.58,36.41,69.67,36.06z"
			/>
		<rect x="60.74" y="60.5" class="st0" width="5.23" height="0.6"/>
		<rect x="34.03" y="60.5" class="st0" width="5.23" height="0.6"/>
	</g>
</g>
</svg>
