<?xml version="1.0" encoding="utf-8"?>
<!-- Generator: Adobe Illustrator 27.0.0, SVG Export Plug-In . SVG Version: 6.00 Build 0)  -->
<svg version="1.1" id="圖層_1" xmlns="http://www.w3.org/2000/svg" xmlns:xlink="http://www.w3.org/1999/xlink" x="0px" y="0px"
	 viewBox="0 0 40 48" style="enable-background:new 0 0 40 48;" xml:space="preserve">
<style type="text/css">
	.st0{fill:#28292A;stroke:#666666;stroke-width:0.5;stroke-miterlimit:10;}
	.st1{fill:#383A3E;}
</style>
<g>
	<path class="st0" d="M22.76,1.81c-0.87,0.21-1.32,1.17-2.48,2.43c-0.41,0.44-1.88,2.66-3.24,5.64c-0.41,0.9-0.62,2.08-0.62,2.08
		c-7.9,13.69-9.31,15.82-9.31,15.82c-2.01,1.77-3.85,6.39-3.95,6.84c0,0-0.22,0.39-0.33,1.32c-0.1,0.94,0.4,1.4,0.89,2.74
		c0.49,1.35,2.82,3.24,2.82,3.24c1.84,1.06,3.24,1.87,5.07,2.93c0,0,2.8,1.07,4.22,0.82c1.42-0.25,2.07-0.05,2.82-0.61
		c0.76-0.56,0.98-0.95,0.98-0.95c0.34-0.31,3.42-4.22,3.95-6.84c0,0,1.04-2.11,9.05-15.98c2.67-2.25,6.06-9.08,5.62-10.56
		c-0.21-0.7-1.14-2.31-1.56-2.72c-0.41-0.41-1.71-1.62-2.86-2.31C30.01,3.43,26.31,0.97,22.76,1.81z"/>
	<g>
		<path class="st1" d="M27.94,27.36c0.05-0.08,0.06-0.18,0.02-0.27l-0.41-0.88c-0.09-0.2-0.37-0.2-0.49,0
			c-1.34,2.32-1.78,2.8-2.83,6.25c-0.39,1.26-0.47,2.16-0.47,2.16L27.94,27.36L27.94,27.36z"/>
		<path class="st1" d="M32.12,18.56c-0.51-0.55-1.71,1.73-4.11,5.98c-0.07,0.11-0.05,0.25,0.03,0.33l0.63,0.62
			c0.11,0.11,0.31,0.07,0.4-0.09l3.58-6.21C32.84,18.87,32.44,18.74,32.12,18.56z"/>
		<path class="st1" d="M34.88,13.3c-0.45,0.21-0.75,0.45-1.15,1.06c-0.4,0.6-1.98,3.43-1.98,3.43l1.78-0.55
			C34.7,14.75,35.71,12.9,34.88,13.3z"/>
		<path class="st1" d="M16.95,44.91c-2.36,0.01-3.01-0.17-3.13,0.11c-0.11,0.28-0.16,0.56,0.12,0.62c1.44,0.27,1.75,0.23,2.9-0.03
			c0.06-0.01,0.12-0.05,0.15-0.11C17.11,45.32,17.32,44.9,16.95,44.91z"/>
		<path class="st1" d="M32.78,12.81c-0.54-0.31-0.04-0.81-9.15,14.97c-0.11,0.2-0.04,0.46,0.17,0.58c0.21,0.12,0.47,0.06,0.58-0.14
			C33.62,12.22,33.32,13.12,32.78,12.81z"/>
		<path class="st1" d="M27.44,29.24c0.09,0.05,0.2,0.02,0.25-0.06l0.66-1.15c0.05-0.08,0.01-0.19-0.07-0.24
			c-0.09-0.05-0.2-0.02-0.25,0.06l-0.66,1.15C27.31,29.08,27.34,29.18,27.44,29.24z"/>
		<path class="st1" d="M31.84,21.6c0.09,0.05,0.2,0.02,0.25-0.06l0.66-1.15c0.05-0.08,0.01-0.19-0.07-0.24
			c-0.09-0.05-0.2-0.02-0.25,0.06l-0.66,1.15C31.72,21.44,31.75,21.54,31.84,21.6z"/>
		<path class="st1" d="M8.29,29.17c3.52,4.06,8.22,6.78,13.5,7.79l2.19-5.92c0.18-0.49-0.12-1.05-0.65-1.19
			c-0.43-0.11-0.98-0.3-1.68-0.63c-2.82-1.31-6.54-3.5-7.97-4.94c-0.39-0.39-1.02-0.37-1.36,0.03L8.29,29.17z"/>
		<path class="st1" d="M24.58,5.56c0.37,0.16,0.91,0.39,1.59,0.67c0.65,0.27,4.37,2.12,7.92,4.82c0.25,0.19,0.6,0.14,0.77-0.11
			c0.57-0.84,0.93-1.14,0.71-1.55c-0.34-0.65-1.24-2.23-2.2-2.8c-0.53-0.32-3.86-2.25-4.58-2.65c-0.97-0.54-2.8-0.53-3.52-0.51
			c-0.19,0.01-0.36,0.11-0.44,0.28L24.3,4.83C24.16,5.11,24.29,5.44,24.58,5.56z"/>
		<path class="st1" d="M14.98,19.24c0.11-0.2-0.03-0.44-0.25-0.42l-0.97,0.08c-0.09,0.01-0.17,0.06-0.22,0.15L9.35,26.3
			c1.2-0.84,2.62-2.57,4.02-4.29C13.45,21.9,14.92,19.35,14.98,19.24z"/>
		<path class="st1" d="M14.8,17.46l0.85,0.23c0.11,0.03,0.23-0.03,0.3-0.13c2.48-4.2,3.87-6.38,3.12-6.55l-0.46-0.26
			c-0.35-0.2-0.33,0.08-3.94,6.33C14.58,17.24,14.64,17.42,14.8,17.46z"/>
		<path class="st1" d="M22.25,6.01c-0.08-0.92-1.17,0.88-2.72,3.14l0.41,1.81C22.09,7.36,22.33,6.98,22.25,6.01z"/>
		<path class="st1" d="M3.83,37.33C3.65,37.01,3.4,37.4,3.3,37.59c-0.03,0.06-0.04,0.12-0.02,0.18c0.35,1.13,0.47,1.42,1.42,2.52
			c0.1,0.11,0.27,0.12,0.37,0.03C5.6,39.83,5.42,40.11,3.83,37.33z"/>
		<path class="st1" d="M23.72,7.58c-0.54-0.31,0.09-1.02-9.15,14.97c-0.11,0.2-0.04,0.46,0.17,0.58c0.21,0.12,0.47,0.06,0.58-0.14
			C24.44,7.2,24.26,7.89,23.72,7.58z"/>
		<path class="st1" d="M12.16,20.42c0.09,0.05,0.2,0.02,0.25-0.06l0.66-1.15c0.05-0.08,0.01-0.19-0.07-0.24
			c-0.09-0.05-0.2-0.02-0.25,0.06l-0.66,1.15C12.05,20.26,12.08,20.37,12.16,20.42z"/>
		<path class="st1" d="M16.58,12.79c0.09,0.05,0.2,0.02,0.25-0.06l0.66-1.15c0.05-0.08,0.01-0.19-0.07-0.24
			c-0.09-0.05-0.2-0.02-0.25,0.06l-0.66,1.15C16.46,12.62,16.49,12.73,16.58,12.79z"/>
		<path class="st1" d="M24.68,2.43c0.83-0.17,0.78-0.12,0.76-0.7c-0.33-0.03-0.76-0.04-1.18-0.04l0.16,0.59
			C24.44,2.38,24.56,2.46,24.68,2.43z"/>
		<path class="st1" d="M37.62,9.4c-0.21-0.37-0.43-0.73-0.62-1c-0.25,0.13-0.5,0.21-0.41,0.48C36.86,9.7,36.73,9.63,37.62,9.4z"/>
	</g>
	<path class="st0" d="M23.17,35.21l-0.19,0.58c1.15,1.08,2.42,1.15,2.66,0.79c0.27-0.41,0.69-0.67-1.64-1.22L23.17,35.21z"/>
	<path class="st0" d="M6.71,25.65c-0.2,0.39,0.5,1.45,2.01,1.91l0.41-0.46l-0.53-0.64C6.95,24.72,6.94,25.21,6.71,25.65z"/>
</g>
</svg>
