<?xml version="1.0" encoding="utf-8"?>
<!-- Generator: Adobe Illustrator 27.0.0, SVG Export Plug-In . SVG Version: 6.00 Build 0)  -->
<svg version="1.1" id="圖層_1" xmlns="http://www.w3.org/2000/svg" xmlns:xlink="http://www.w3.org/1999/xlink" x="0px" y="0px"
	 viewBox="0 0 38 41" style="enable-background:new 0 0 38 41;" xml:space="preserve">
<style type="text/css">
	.st0{fill:#28292A;stroke:#666666;stroke-width:0.5;stroke-miterlimit:10;}
	.st1{fill:#383A3E;}
	.st2{fill:none;}
	.st3{fill:#28292A;}
</style>
<g>
	<path class="st0" d="M32.03,35.67c6.37-5.93,6.45-5.19-4.08-18.68C25.54,13.9,17.32,4.11,13.82,2.03
		c-0.84-0.51-2.32-0.67-3.58-0.22C8.35,2.49,3.46,6.59,2.47,8.33C1.81,9.5,1.71,10.97,2.06,11.9c2.09,5.54,20.12,26.32,23.06,26.97
		c0.97,0.22,2.57-0.03,3.31-0.53C29.17,37.83,32.03,35.67,32.03,35.67z"/>
	<g>
		<path class="st1" d="M21.87,34.14c0.39-0.39,0.78-0.97,0.37-1.57c-0.7-1.02-5.97-7.52-7.62-8.93c-0.96-0.82-3.94-3.5-4.85-4.1
			c-0.91-0.59-1.55-0.09-1.55-0.09c12.67,15.61,7.57,9.15,12.09,14.41C20.31,33.86,21.48,34.54,21.87,34.14z"/>
		<path class="st1" d="M25.99,37.68c-0.48,0.15-0.98,0.04-2.93-0.14c1.67,1.33,2.47,1.4,3.98,1.06c0.64-0.15,1.15-0.47,1.31-0.74
			c0.15-0.26-0.4-0.33-0.76-0.46C27.23,37.29,26.5,37.51,25.99,37.68z"/>
		<path class="st1" d="M8.08,17.51l4.16,3.16c0.63,0.48,0.66-0.17,4.42-3.33c0.52-0.44,1.27-1.05,2.08-1.68
			c0.74-0.56,1.25-0.92,1.58-1.2c0.07-0.05,0.14-0.1,0.19-0.15c0.16-0.11,0.25-0.21,0.24-0.4c0.02-0.11,0.01-0.23-0.06-0.35
			l-0.14-0.28c-0.31-0.69-1-1.93-2.23-4.33l-0.01-0.03c-0.03-0.07-0.08-0.13-0.15-0.18c-0.06-0.05-0.12-0.09-0.19-0.11
			c-0.14-0.05-0.3-0.04-0.44,0.03c-0.11,0.06-0.25,0.12-0.4,0.2c-0.38,0.19-0.75,0.38-1.1,0.57c-0.25,0.14-0.5,0.27-0.67,0.36
			l0,0.01c-1.08,0.62-2.09,1.34-3.14,2.24c-1.75,1.43-2.98,2.86-4.25,4.64C7.77,16.96,7.83,17.32,8.08,17.51z"/>
		<path class="st1" d="M12.24,12.03l-0.06,0.05c0.01-0.01,0.01-0.02,0.02-0.02C12.22,12.05,12.23,12.03,12.24,12.03z"/>
		<path class="st1" d="M35.06,30.07c-0.26,0.48-0.6,1.15-0.54,1.53s0.02,0.93,0.31,0.82c0.79-0.29,1.48-2.23,1.38-3.06
			c-0.06-0.54-0.22-1.03-0.4-1.43c-0.19-0.41-0.39-0.77-0.39-0.77C35.27,29.12,35.3,29.63,35.06,30.07z"/>
		<path class="st1" d="M3.09,12.25c0.35-0.64,0.88-1.3,0.81-1.93S3.78,8.89,3.62,8.49C3.45,8.09,3.19,8.05,3.1,8.13
			C2.08,8.98,1.81,9.6,2.39,12.02C2.39,12.02,2.75,12.89,3.09,12.25z"/>
		<path class="st1" d="M11.95,3.56c0.62,0.18,1.36-0.22,2.05-0.46c0.69-0.22-0.1-0.73-0.1-0.73c-2.29-0.99-2.94-0.84-3.95,0.02
			c-0.1,0.09-0.1,0.34,0.26,0.58C10.57,3.2,11.32,3.38,11.95,3.56z"/>
		<path class="st1" d="M33.99,30.38c0.05-0.1,0.1-0.21,0.15-0.32c0.22-0.47,0.42-0.95,0.62-1.49c0.1-0.25,0.15-0.41,0.15-0.41
			l-2.03-0.5c-0.34,0.55-0.62,1.01-0.89,1.41c-0.4,0.6-0.77,1.11-1.23,1.62c-0.03,0.03-0.07,0.08-0.1,0.11
			c-0.02,0.02-0.04,0.04-0.06,0.06c-0.35,0.36-0.75,0.74-1.26,1.17v0c-0.1,0.09-0.22,0.19-0.33,0.28c-1.6,1.39-2.82,1.93-5.01,2.78
			l0.14,2.09c2.07-0.33,3.63-0.82,5.27-1.94c0.16-0.1,0.31-0.22,0.45-0.32c0.01-0.01,0.02-0.01,0.03-0.02
			c0.01-0.01,0.01-0.01,0.02-0.01c0.34-0.26,0.63-0.49,0.79-0.65c0.05-0.05,0.08-0.08,0.08-0.08s0.05-0.03,0.14-0.1
			c0.4-0.28,0.8-0.67,1.17-1.07c0.4-0.4,0.74-0.81,1.04-1.23c0.04-0.05,0.09-0.1,0.11-0.15c0.26-0.33,0.51-0.78,0.74-1.25
			C33.99,30.38,33.99,30.38,33.99,30.38z"/>
		<path class="st1" d="M19.86,10.28c0,0.01,0,0.02,0,0.02c0,0.01,0,0.01,0,0.02c0,0.19,0.05,0.4,0.15,0.64
			c0.04,0.09,0.09,0.19,0.15,0.32c0.3,0.65,0.78,1.43,1.34,2.34c0.68,1.13,1.39,2.28,1.71,2.83c0.64,1.09,2.54,3.35,3.28,4.26
			c0.73,0.91,3.67,4.27,4.2,4.78c0.53,0.51,1.16,0.22,1.6-0.09c0.45-0.31-0.01-1.59-0.01-1.59c-4.12-5.04,0.32-0.08-10.35-12.4l0,0
			l-1.74-2c0,0-0.02,0.02-0.05,0.04C19.93,9.68,19.84,9.95,19.86,10.28z"/>
	</g>
	<path class="st2" d="M12.18,12.07c1.74-1.5,3.38-2.47,5.34-3.41c0.29-0.14,0.64-0.02,0.78,0.27c2.48,4.83,2.76,5,2.2,5.39
		c-1.33,0.95-2.98,2.28-3.89,3.05l0.06-0.05c-3.79,3.18-3.81,3.83-4.45,3.34l-4.16-3.16c-0.25-0.19-0.32-0.56-0.12-0.82
		c1.28-1.79,2.52-3.23,4.28-4.66"/>
	<g>
		
			<rect x="26.3" y="19.86" transform="matrix(0.766 -0.6428 0.6428 0.766 -6.4047 22.4312)" class="st3" width="2.61" height="0.3"/>
		
			<rect x="16.07" y="28.45" transform="matrix(0.766 -0.6428 0.6428 0.766 -14.3163 17.8643)" class="st3" width="2.61" height="0.3"/>
	</g>
	<path class="st0" d="M8.48,19.24c-0.22-0.05-0.31,0.17-0.64,0.53c-0.34,0.38-0.59,0.95-0.83,1.38c-0.24,0.42-0.08,0.77,0.07,0.92
		c0.15,0.15,0.33-0.16,0.47-0.39c0.16-0.26,0.77-1.22,1-1.44c0.27-0.27,0.42-0.34,0.41-0.55S8.7,19.28,8.48,19.24z"/>
	<path class="st0" d="M22.08,8.51c-0.46,0.16-1.08,0.31-1.5,0.57c-0.43,0.27-0.65,0.32-0.64,0.54c0,0.23,0.17,0.49,0.36,0.54
		c0.19,0.04,0.29-0.09,0.61-0.31c0.26-0.18,1.31-0.61,1.59-0.73c0.26-0.1,0.59-0.22,0.47-0.39C22.86,8.56,22.54,8.35,22.08,8.51z"/>
</g>
</svg>
