<?xml version="1.0" encoding="utf-8"?>
<!-- Generator: Adobe Illustrator 27.0.0, SVG Export Plug-In . SVG Version: 6.00 Build 0)  -->
<svg version="1.1" id="圖層_1" xmlns="http://www.w3.org/2000/svg" xmlns:xlink="http://www.w3.org/1999/xlink" x="0px" y="0px"
	 viewBox="0 0 52 92" style="enable-background:new 0 0 52 92;" xml:space="preserve">
<style type="text/css">
	.st0{fill:#28292A;stroke:#666666;stroke-width:0.5;stroke-miterlimit:10;}
	.st1{fill:#383A3E;}
</style>
<g>
	<path class="st0" d="M15.57,2.98c-1.49,0.99-1.69,3.1-2.99,6.26c-0.46,1.11-1.71,6.29-2.23,12.81c-0.15,1.97,0.26,4.34,0.26,4.34
		C5.12,57.52,3.93,62.5,3.93,62.5c-2.56,4.7-2.86,14.65-2.74,15.56c0,0-0.15,0.88,0.29,2.71c0.45,1.84,1.7,2.36,3.54,4.55
		c1.85,2.2,7.51,4.17,7.51,4.17c4.18,0.74,7.37,1.3,11.53,2.03c0,0,6,0.09,8.48-1.35c2.49-1.44,3.85-1.5,4.89-3.07
		c1.05-1.57,1.2-2.45,1.2-2.45c0.42-0.82,3.55-10.27,2.74-15.56c0,0,0.51-4.67,6.07-36.22c3.48-6.06,5.18-21.21,3.34-23.69
		c-0.88-1.18-3.72-3.56-4.79-4.05c-1.06-0.49-4.32-1.88-6.96-2.39C30.3,1.05,21.67-1.04,15.57,2.98z"/>
	<g>
		<path class="st1" d="M42.78,47.45c0.03-0.19-0.02-0.38-0.15-0.51l-1.38-1.37c-0.31-0.31-0.84-0.13-0.92,0.33
			c-0.93,5.28-1.42,6.48-1.04,13.68c0.13,2.63,0.6,4.37,0.6,4.37L42.78,47.45L42.78,47.45z"/>
		<path class="st1" d="M44.62,28.04c-1.34-0.69-2.03,4.43-3.64,14.05c-0.05,0.26,0.07,0.5,0.29,0.6l1.6,0.73
			c0.29,0.13,0.63-0.08,0.7-0.44l2.49-14.12C46.19,28.14,45.35,28.17,44.62,28.04z"/>
		<path class="st1" d="M46.2,16.27c-0.7,0.71-1.1,1.36-1.44,2.77c-0.34,1.41-1.37,7.79-1.37,7.79l2.96-2.25
			C46.86,19.12,47.5,14.96,46.2,16.27z"/>
		<path class="st1" d="M34.14,87.94c-4.42,1.63-5.78,1.74-5.8,2.35c-0.01,0.59,0.08,1.17,0.65,1.08c2.89-0.48,3.44-0.76,5.43-2.04
			c0.11-0.07,0.18-0.18,0.21-0.3C34.71,88.61,34.83,87.68,34.14,87.94z"/>
		<path class="st1" d="M41.92,16.79c-1.23-0.22-0.62-1.49-6.95,34.4c-0.08,0.45,0.24,0.89,0.71,0.97c0.47,0.08,0.92-0.21,1-0.67
			C43.11,15.11,43.16,17.01,41.92,16.79z"/>
		<path class="st1" d="M43.12,51.32c0.2,0.03,0.39-0.09,0.43-0.28L44,48.42c0.03-0.19-0.11-0.37-0.3-0.41
			c-0.2-0.03-0.39,0.09-0.43,0.28l-0.46,2.62C42.78,51.1,42.91,51.28,43.12,51.32z"/>
		<path class="st1" d="M46.18,33.95c0.2,0.03,0.39-0.09,0.43-0.28l0.46-2.62c0.03-0.19-0.11-0.37-0.3-0.41
			c-0.2-0.03-0.39,0.09-0.43,0.28l-0.46,2.62C45.84,33.73,45.97,33.91,46.18,33.95z"/>
		<path class="st1" d="M7.09,64.3c9.39,5.23,20.09,7.12,30.71,5.41l0.06-12.63c0-1.05-0.95-1.89-2.04-1.79
			c-0.88,0.08-2.05,0.1-3.59-0.03c-6.19-0.54-14.68-2.11-18.36-3.84c-1-0.46-2.17,0-2.53,0.99L7.09,64.3z"/>
		<path class="st1" d="M21.56,8.78c0.8,0.04,1.98,0.1,3.45,0.17c1.41,0.07,9.66,1,18.19,3.64c0.61,0.19,1.23-0.15,1.38-0.73
			c0.49-1.97,0.96-2.78,0.28-3.4C43.78,7.48,41,5.12,38.81,4.7c-1.22-0.24-8.8-1.58-10.42-1.84c-2.2-0.35-5.62,0.92-6.97,1.46
			c-0.35,0.15-0.6,0.46-0.63,0.82l-0.26,2.46C20.46,8.22,20.93,8.74,21.56,8.78z"/>
		<path class="st1" d="M12.88,41.05c0.08-0.45-0.36-0.8-0.75-0.62l-1.77,0.82c-0.17,0.08-0.28,0.23-0.32,0.43L7.13,58.17
			c1.67-2.4,3.17-6.62,4.62-10.81C11.82,47.1,12.83,41.31,12.88,41.05z"/>
		<path class="st1" d="M11.32,37.84l1.75-0.14c0.23-0.02,0.42-0.21,0.48-0.46c1.78-9.59,2.9-14.64,1.39-14.45l-1.04-0.18
			c-0.8-0.14-0.57,0.38-3.08,14.59C10.75,37.56,11,37.87,11.32,37.84z"/>
		<path class="st1" d="M17.48,11.21c-0.77-1.67-1.6,2.45-2.96,7.76l2,3.12C18.1,13.86,18.3,12.98,17.48,11.21z"/>
		<path class="st1" d="M4.3,82.68c-0.57-0.48-0.77,0.43-0.83,0.86c-0.02,0.13,0.01,0.25,0.09,0.35c1.43,1.88,1.85,2.34,4.4,3.77
			c0.26,0.15,0.59,0.05,0.72-0.2C9.33,86.17,9.18,86.81,4.3,82.68z"/>
		<path class="st1" d="M21.32,13.16c-1.23-0.22-0.53-1.98-6.95,34.4c-0.08,0.45,0.24,0.89,0.71,0.97c0.47,0.08,0.92-0.21,1-0.67
			C22.42,11.96,22.54,13.37,21.32,13.16z"/>
		<path class="st1" d="M8.39,45.2c0.2,0.03,0.39-0.09,0.43-0.28l0.46-2.62c0.03-0.19-0.11-0.37-0.3-0.41
			c-0.2-0.03-0.39,0.09-0.43,0.28l-0.46,2.62C8.06,44.98,8.2,45.16,8.39,45.2z"/>
		<path class="st1" d="M11.46,27.83c0.2,0.03,0.39-0.09,0.43-0.28l0.46-2.62c0.03-0.19-0.11-0.37-0.3-0.41
			c-0.2-0.03-0.39,0.09-0.43,0.28l-0.46,2.62C11.12,27.6,11.26,27.79,11.46,27.83z"/>
		<path class="st1" d="M19.6,2.83c1.44-0.88,1.39-0.76,0.94-1.84c-0.65,0.17-1.45,0.44-2.24,0.73l0.71,0.99
			C19.13,2.9,19.39,2.96,19.6,2.83z"/>
		<path class="st1" d="M48.68,7.07C48.04,6.52,47.37,6,46.83,5.62c-0.39,0.41-0.79,0.73-0.44,1.18C47.47,8.16,47.17,8.12,48.68,7.07
			z"/>
	</g>
	<path class="st0" d="M39.19,65.46l0.04,1.23c2.89,1.24,5.33,0.51,5.53-0.34c0.22-0.96,0.83-1.73-3.91-1.18L39.19,65.46z"/>
	<path class="st0" d="M1.71,58.75c-0.11,0.87,1.93,2.39,5.08,2.22l0.45-1.14L5.8,58.99C1.53,56.84,1.84,57.78,1.71,58.75z"/>
</g>
</svg>
