<?xml version="1.0" encoding="utf-8"?>
<!-- Generator: Adobe Illustrator 27.0.0, SVG Export Plug-In . SVG Version: 6.00 Build 0)  -->
<svg version="1.1" id="圖層_1" xmlns="http://www.w3.org/2000/svg" xmlns:xlink="http://www.w3.org/1999/xlink" x="0px" y="0px"
	 viewBox="0 0 76 71" style="enable-background:new 0 0 76 71;" xml:space="preserve">
<style type="text/css">
	.st0{fill:#28292A;stroke:#666666;stroke-width:0.5;stroke-miterlimit:10;}
	.st1{fill:#383A3E;}
	.st2{fill:none;}
	.st3{fill:#28292A;}
</style>
<g>
	<path class="st0" d="M68.99,9.46C57.13-3.27,58.6-3.44,31.64,17.61C25.44,22.45,5.87,38.89,1.7,45.89
		c-1.01,1.69-1.33,4.64-0.43,7.16c1.35,3.77,9.55,13.55,13.04,15.54c2.33,1.32,5.28,1.52,7.13,0.82
		c11.07-4.18,52.63-40.23,53.94-46.11c0.43-1.94-0.05-5.14-1.06-6.62C73.31,15.18,68.99,9.46,68.99,9.46z"/>
	<g>
		<path class="st1" d="M65.93,29.78c-0.78-0.77-1.93-1.57-3.13-0.74c-2.05,1.41-15.05,11.94-17.86,15.24
			c-1.64,1.92-7.01,7.88-8.2,9.7c-1.19,1.82-0.18,3.1-0.18,3.1c31.21-25.34,18.3-15.14,28.81-24.18
			C65.37,32.9,66.72,30.56,65.93,29.78z"/>
		<path class="st1" d="M73.01,21.55c0.31,0.95,0.09,1.96-0.28,5.85c2.66-3.33,2.8-4.94,2.13-7.95c-0.29-1.27-0.93-2.31-1.47-2.62
			c-0.53-0.31-0.66,0.8-0.91,1.52C72.23,19.06,72.66,20.53,73.01,21.55z"/>
		<path class="st1" d="M32.67,57.36l6.31-8.31c0.96-1.26-0.33-1.31-6.65-8.84c-0.87-1.04-2.1-2.55-3.35-4.15
			c-1.11-1.47-1.84-2.5-2.4-3.17c-0.1-0.13-0.2-0.27-0.29-0.39c-0.23-0.32-0.42-0.5-0.81-0.48c-0.22-0.05-0.45-0.02-0.7,0.12
			l-0.56,0.28c-1.39,0.62-3.87,1.99-8.66,4.45l-0.05,0.03c-0.15,0.07-0.26,0.17-0.36,0.29c-0.1,0.12-0.17,0.25-0.22,0.39
			c-0.1,0.28-0.08,0.6,0.06,0.89c0.11,0.22,0.25,0.5,0.39,0.79c0.37,0.76,0.75,1.49,1.13,2.21c0.27,0.51,0.54,1,0.73,1.34l0.02,0.01
			c1.25,2.15,2.67,4.18,4.49,6.28c2.86,3.5,5.73,5.95,9.28,8.51C31.57,57.99,32.28,57.87,32.67,57.36z"/>
		<path class="st1" d="M21.7,49.05l0.09,0.11c-0.01-0.02-0.03-0.03-0.04-0.05C21.74,49.08,21.71,49.06,21.7,49.05z"/>
		<path class="st1" d="M57.78,3.41c0.95,0.51,2.3,1.19,3.06,1.08s1.86-0.05,1.65-0.63c-0.58-1.58-4.46-2.95-6.12-2.76
			c-1.08,0.13-2.07,0.43-2.87,0.81c-0.81,0.38-1.54,0.77-1.54,0.77C55.88,2.98,56.9,2.93,57.78,3.41z"/>
		<path class="st1" d="M22.14,67.34c-1.28-0.69-2.59-1.75-3.87-1.61s-2.85,0.23-3.64,0.56c-0.8,0.33-0.88,0.85-0.72,1.04
			c1.7,2.03,2.93,2.57,7.78,1.41C21.69,68.75,23.43,68.03,22.14,67.34z"/>
		<path class="st1" d="M4.76,49.63c0.36-1.24-0.45-2.72-0.91-4.09c-0.45-1.38-1.47,0.2-1.47,0.2c-1.98,4.58-1.67,5.87,0.04,7.9
			c0.17,0.2,0.68,0.21,1.15-0.52C4.04,52.39,4.4,50.88,4.76,49.63z"/>
		<path class="st1" d="M58.4,5.54c-0.2-0.1-0.42-0.2-0.63-0.3C56.84,4.8,55.86,4.39,54.8,4c-0.49-0.19-0.81-0.3-0.81-0.3l-1,4.07
			c1.1,0.68,2.02,1.24,2.82,1.77c1.2,0.79,2.23,1.55,3.24,2.46c0.07,0.07,0.15,0.13,0.22,0.2c0.05,0.04,0.08,0.08,0.12,0.12
			c0.73,0.7,1.47,1.49,2.35,2.51l0.01,0c0.18,0.21,0.37,0.44,0.55,0.67c2.78,3.19,3.86,5.64,5.57,10.01l4.18-0.27
			c-0.66-4.13-1.64-7.26-3.88-10.54c-0.21-0.32-0.43-0.63-0.64-0.91c-0.01-0.02-0.03-0.04-0.04-0.06c-0.01-0.01-0.02-0.02-0.03-0.03
			c-0.51-0.69-0.99-1.26-1.3-1.58c-0.1-0.1-0.15-0.15-0.15-0.15s-0.06-0.09-0.2-0.27c-0.56-0.79-1.33-1.6-2.13-2.34
			c-0.8-0.79-1.62-1.48-2.47-2.09c-0.1-0.07-0.21-0.17-0.29-0.22c-0.65-0.51-1.56-1.02-2.51-1.48C58.41,5.55,58.4,5.54,58.4,5.54z"
			/>
		<path class="st1" d="M18.2,33.8c0.01,0,0.03,0,0.05,0c0.01,0,0.02-0.01,0.04,0c0.37-0.01,0.79-0.09,1.27-0.29
			c0.17-0.08,0.39-0.19,0.64-0.3c1.29-0.6,2.85-1.57,4.68-2.68c2.26-1.35,4.56-2.77,5.66-3.42c2.18-1.28,6.71-5.08,8.53-6.56
			c1.82-1.47,8.54-7.35,9.57-8.4s0.44-2.31-0.19-3.21c-0.62-0.9-3.17,0.02-3.17,0.02c-10.08,8.25-0.15-0.64-24.79,20.7l0,0l-4,3.48
			c0,0,0.03,0.04,0.08,0.09C17.01,33.67,17.55,33.85,18.2,33.8z"/>
	</g>
	<path class="st2" d="M21.79,49.16c-3-3.47-4.93-6.75-6.82-10.68c-0.28-0.58-0.04-1.27,0.53-1.57c9.65-4.96,9.99-5.51,10.78-4.4
		c1.9,2.66,4.56,5.95,6.09,7.77l-0.09-0.11c6.36,7.58,7.66,7.62,6.69,8.89l-6.31,8.31c-0.39,0.51-1.12,0.63-1.63,0.25
		c-3.58-2.57-6.46-5.04-9.33-8.57"/>
	<g>
		
			<rect x="37.37" y="15.69" transform="matrix(0.766 -0.6428 0.6428 0.766 -2.9501 28.4987)" class="st3" width="0.6" height="5.23"/>
		
			<rect x="54.54" y="36.15" transform="matrix(0.766 -0.6428 0.6428 0.766 -12.0855 44.3216)" class="st3" width="0.6" height="5.23"/>
	</g>
	<path class="st0" d="M36.12,56.57c-0.09,0.44,0.33,0.61,1.07,1.28c0.75,0.68,1.91,1.18,2.75,1.65c0.85,0.47,1.55,0.16,1.84-0.14
		c0.3-0.3-0.32-0.65-0.78-0.93c-0.53-0.32-2.44-1.54-2.89-1.99c-0.55-0.54-0.69-0.83-1.09-0.82S36.21,56.13,36.12,56.57z"/>
	<path class="st0" d="M14.66,29.37c0.32,0.92,0.61,2.15,1.14,3c0.54,0.86,0.63,1.3,1.07,1.28c0.45-0.01,0.99-0.34,1.08-0.72
		c0.08-0.38-0.18-0.58-0.62-1.22c-0.36-0.52-1.23-2.61-1.45-3.19c-0.2-0.51-0.44-1.18-0.78-0.93
		C14.77,27.81,14.35,28.44,14.66,29.37z"/>
</g>
</svg>
