<?xml version="1.0" encoding="utf-8"?>
<!-- Generator: Adobe Illustrator 27.0.0, SVG Export Plug-In . SVG Version: 6.00 Build 0)  -->
<svg version="1.1" id="圖層_1" xmlns="http://www.w3.org/2000/svg" xmlns:xlink="http://www.w3.org/1999/xlink" x="0px" y="0px"
	 viewBox="0 0 100 100" style="enable-background:new 0 0 100 100;" xml:space="preserve">
<style type="text/css">
	.st0{fill:#888888;}
	.st1{fill:#666666;}
</style>
<g>
	<path class="st0" d="M57.45,2.46c0.37-0.26,0.28-0.45,0-0.84c-0.28-0.39-1.37-0.69-1.37-0.69c-4.41,0-7.77,0-12.18,0
		c0,0-1.08,0.3-1.37,0.69c-0.28,0.39-0.37,0.58,0,0.84c0.37,0.26,2.73,0.21,2.73,0.21C53.21,2.68,56.97,2.8,57.45,2.46z"/>
	<path class="st1" d="M66.82,7.73c-1.65-4.99-9.62-6.79-9.62-6.79H50h-7.19c0,0-7.97,1.81-9.62,6.79
		c-4.1,12.41-1.35,18.91-1.56,23.81c-0.13,2.86-0.11,12.62-0.1,22.1l-0.04,0.15c0.01,0,0.03,0.01,0.05,0.01
		c0.01,7.83,0.03,15.43-0.03,18.77c-0.01,0-0.02,0.01-0.04,0.02l0.03,0.1c-0.01,0.64-0.03,1.13-0.04,1.4
		c-0.17,2.67-0.35,8.34,0.09,10.57s1.21,7.57,1.82,8.77s2.77,4.81,8.76,5.24c26.24,1.89,24.28-3.31,26.35-14.01
		c0.48-2.48,0.21-6.5,0.06-12.03l0.01-0.04c-0.01,0-0.01-0.01-0.02-0.01c-0.06-2.21-0.1-4.65-0.06-7.35c0,0,0.01-5.15,0.02-11.44
		c0.01,0,0.03-0.01,0.04-0.01l-0.04-0.12c0.01-8.82-0.01-19.83-0.11-22.13c-0.17-3.95,0.52-4.47,0.69-8.94S68.46,12.71,66.82,7.73z"
		/>
	<g>
		<path class="st0" d="M35.72,79.27c0.66-2.07,1.46-5.52,1.71-10.46c1.23-24.82-0.2-26.08-3.25-35.33
			c-0.02,0.09-0.22,0.82-0.22,0.92c-0.74,25.21-0.43,30.34,0.63,44.74C34.64,79.77,35.53,79.87,35.72,79.27z"/>
		<path class="st0" d="M34.51,92.06l-0.4,1.06c0.16,2.36,5.82,3.7,8.12,4.16l0.29-0.34l0.9-0.11v-0.63
			C38.6,95.01,36.04,94.14,34.51,92.06z"/>
		<path class="st0" d="M33.33,11.37c0,0,0.14-1.63,3.35-4.96c1.24-1.29,4.85-3.21,4.85-3.21c-0.79-0.27-1.44-0.63-2.14-0.23
			c-4,2.28-3.89,2.09-6.18,5.85c-0.75,1.23-0.4,2.78-0.4,2.78L33.33,11.37z"/>
		<path class="st1" d="M32.71,31.75c-2.33,0.96-5.33,4.91-2.64,4.18c1.16-0.91,0.11-0.22,4.07-2.61
			C35.17,32.69,33.93,31.24,32.71,31.75z"/>
		<path class="st0" d="M32.09,47.19c-0.56,0-0.34,0.93-0.34,3.17c0,0.2,0.15,0.37,0.34,0.37c0.56,0,0.34-0.93,0.34-3.17
			C32.43,47.35,32.28,47.19,32.09,47.19z"/>
		<path class="st0" d="M32.09,67.42c-0.56,0-0.34,0.93-0.34,3.17c0,0.2,0.15,0.37,0.34,0.37c0.56,0,0.34-0.93,0.34-3.17
			C32.43,67.58,32.28,67.42,32.09,67.42z"/>
		<path class="st0" d="M37.13,23.89c1.84-6.6,4.12-17.67,4.12-18.61c0-1.16-1.13,0.86-1.13,0.86C39,9.94,36.81,19.7,35.35,28.4
			C35.22,29.18,36,27.93,37.13,23.89z"/>
		<path class="st0" d="M61.47,86.99c0.69-0.25,1.24-0.54,1.6-0.89c0.07-0.06,0.1-0.1,0.1-0.1v0l0,0l-0.16-1.33l-1.33-11.26l0,0v0
			c-0.24,0.18-0.51,0.33-0.8,0.46c-0.09,0.04-0.18,0.08-0.28,0.12c-0.21,0.09-0.43,0.17-0.67,0.25c-0.12,0.04-0.23,0.07-0.35,0.1
			c-0.21,0.06-0.43,0.11-0.66,0.16c-1.31,0.28-2.64,0.36-3.47,0.41c-5.2,0.34-5.35,0.26-5.35,0.26s-0.38,0.09-5.58-0.26
			c-3.53-0.23-2.41-0.14-4.64-0.73c-0.86-0.23-1.59-0.77-1.59-0.77L36.82,86c0.84,0.92,2.81,1.47,5.21,1.78l0,0.02
			c0.34,0.04,0.77,0.08,1.28,0.12c1.38,0.13,2.84,0.19,4.29,0.22c2.74,0.08,5.94,0.05,8.76-0.2c0.01,0,0.01,0,0.02,0
			C58.79,87.82,60.41,87.41,61.47,86.99z"/>
		<path class="st0" d="M65.82,33.48c0,0-1.6,4.86-2.64,8.3c-1.44,4.78-1.01,18.11-0.71,24.91c0.02,0.51,0.04,1.02,0.07,1.53
			c0.01,0.21,0.02,0.41,0.03,0.59c0.01,0.22,0.03,0.42,0.04,0.63c0.01,0.09,0.01,0.19,0.02,0.28c0.09,1.32,0.21,2.53,0.36,3.62
			c0.01,0.09,0.02,0.17,0.03,0.26c0.08,0.56,0.17,1.1,0.26,1.6c0.04,0.23,0.09,0.46,0.14,0.7c0.08,0.39,0.16,0.75,0.24,1.1
			c0.04,0.17,0.08,0.34,0.12,0.51c0.17,0.67,0.34,1.26,0.5,1.76c0.19,0.61,1.08,0.5,1.13-0.13c0.52-7.05,1-14.33,1.03-20.22
			l-0.1,0.12C66.62,44.62,66.03,34.32,65.82,33.48z"/>
		<path class="st0" d="M56.59,96.19v0.63l0.9,0.11l0.29,0.34c2.3-0.46,7.96-1.8,8.12-4.16l-0.4-1.06
			C63.96,94.14,61.4,95.01,56.59,96.19z"/>
		<path class="st0" d="M66.44,10.59c0.23,0.77,0.23,0.77,0.23,0.77l0.52,0.23c0,0,0.35-1.55-0.4-2.78
			c-0.75-1.23-1.88-3.21-3.01-3.95c-0.8-0.53-2.35-1.42-3.18-1.89c-0.7-0.4-1.34-0.04-2.14,0.23c0,0,3.61,1.93,4.85,3.21
			C64.56,7.7,66.2,9.82,66.44,10.59z"/>
		<path class="st1" d="M67.29,31.75c-1.23-0.5-2.46,0.95-1.42,1.58c4.18,2.53,4.07,2.61,4.07,2.61
			C72.62,36.66,69.62,32.7,67.29,31.75z"/>
		<path class="st0" d="M67.91,47.19c-0.19,0-0.34,0.17-0.34,0.37c0,2.25-0.22,3.17,0.34,3.17c0.19,0,0.34-0.17,0.34-0.37
			C68.25,48.12,68.47,47.19,67.91,47.19z"/>
		<path class="st0" d="M67.91,67.42c-0.19,0-0.34,0.17-0.34,0.37c0,2.25-0.22,3.17,0.34,3.17c0.19,0,0.34-0.17,0.34-0.37
			C68.25,68.34,68.47,67.42,67.91,67.42z"/>
		<path class="st0" d="M59.97,11.6c2.56,13.25,4.93,18.29,4.68,16.81C63.19,19.7,61,9.94,59.88,6.14
			C57.59,2.03,59.46,8.96,59.97,11.6z"/>
		<path class="st0" d="M34.79,30.29l3.6,12.08c0.16-0.06,0.35-0.11,0.53-0.17c1.46-0.4,3.89-0.68,6.65-0.82
			c3.47-0.15,7.14-0.05,9.2,0.04l0.02-0.02c2.96,0.16,5.5,0.48,6.83,0.97l3.6-12.08c0,0-0.01-0.01-0.6-0.67l0,0c0,0,0,0,0,0
			c-0.04-0.05-0.08-0.09-0.13-0.15c-4.77-5.28-24.08-5.4-28.95,0C34.79,30.29,34.79,30.29,34.79,30.29z"/>
	</g>
</g>
</svg>
