<?xml version="1.0" encoding="utf-8"?>
<!-- Generator: Adobe Illustrator 27.0.0, SVG Export Plug-In . SVG Version: 6.00 Build 0)  -->
<svg version="1.1" id="圖層_1" xmlns="http://www.w3.org/2000/svg" xmlns:xlink="http://www.w3.org/1999/xlink" x="0px" y="0px"
	 viewBox="0 0 200 200" style="enable-background:new 0 0 200 200;" xml:space="preserve">
<style type="text/css">
	.st0{fill:url(#SVGID_1_);}
</style>
<radialGradient id="SVGID_1_" cx="99.835" cy="100.19" r="91.6325" gradientTransform="matrix(1 0 0 -1 0 200)" gradientUnits="userSpaceOnUse">
	<stop  offset="0" style="stop-color:#EE5F30;stop-opacity:0.2"/>
	<stop  offset="1" style="stop-color:#FF3F1A"/>
</radialGradient>
<path class="st0" d="M105.96,32.99c9.72,0.73,33.54-19.93,33.54-19.93s0.24,31.52,7.22,38.34c6.98,6.81,38.5,6.29,38.5,6.29
	S165.14,82,166.11,91.71c0.97,9.7,25.45,29.57,25.45,29.57s-31,5.71-36.5,13.77s0.49,39.01,0.49,39.01s-27.42-15.55-36.81-12.91
	s-24.7,30.2-24.7,30.2s-11.01-29.54-19.9-33.55c-8.89-4.01-38.33,7.25-38.33,7.25s10.55-29.71,6.32-38.49s-34.02-19.1-34.02-19.1
	S35.29,91.49,37.7,82.04S23.9,45.55,23.9,45.55s31.09,5.23,39.01-0.46S75.79,8.27,75.79,8.27S96.24,32.26,105.96,32.99z"/>
</svg>
