<?xml version="1.0" encoding="utf-8"?>
<!-- Generator: Adobe Illustrator 27.0.0, SVG Export Plug-In . SVG Version: 6.00 Build 0)  -->
<svg version="1.1" id="圖層_1" xmlns="http://www.w3.org/2000/svg" xmlns:xlink="http://www.w3.org/1999/xlink" x="0px" y="0px"
	 viewBox="0 0 200 200" style="enable-background:new 0 0 200 200;" xml:space="preserve">
<style type="text/css">
	.st0{fill:url(#SVGID_1_);}
</style>
<radialGradient id="SVGID_1_" cx="99.834" cy="99.8022" r="91.6281" gradientUnits="userSpaceOnUse">
	<stop  offset="0.1692" style="stop-color:#EE693B;stop-opacity:0.2"/>
	<stop  offset="0.9387" style="stop-color:#FF5533"/>
</radialGradient>
<path class="st0" d="M105.96,32.99c9.72,0.73,33.54-19.93,33.54-19.93s0.24,31.52,7.22,38.34c6.98,6.81,38.5,6.29,38.5,6.29
	S165.14,82,166.11,91.71c0.97,9.7,25.45,29.57,25.45,29.57s-31,5.71-36.5,13.77c-5.5,8.06,0.49,39.01,0.49,39.01
	s-27.42-15.55-36.81-12.91c-9.39,2.64-24.7,30.2-24.7,30.2s-11.01-29.54-19.9-33.55c-8.89-4.01-38.33,7.25-38.33,7.25
	s10.55-29.71,6.32-38.49S8.11,107.46,8.11,107.46S35.29,91.49,37.7,82.04c2.41-9.45-13.8-36.49-13.8-36.49s31.09,5.23,39.01-0.46
	S75.79,8.27,75.79,8.27S96.24,32.26,105.96,32.99z"/>
</svg>
