<?xml version="1.0" encoding="utf-8"?>
<!-- Generator: Adobe Illustrator 27.0.0, SVG Export Plug-In . SVG Version: 6.00 Build 0)  -->
<svg version="1.1" id="圖層_1" xmlns="http://www.w3.org/2000/svg" xmlns:xlink="http://www.w3.org/1999/xlink" x="0px" y="0px"
	 viewBox="0 0 100 100" style="enable-background:new 0 0 100 100;" xml:space="preserve">
<style type="text/css">
	.st0{fill:#554440;stroke:#994433;stroke-width:2;stroke-miterlimit:10;}
</style>
<g>
	<path class="st0" d="M31.73,91.1c-0.68-4.39-2.36-11.11-3.98-12.29c-0.3-0.21-1.34-0.71-4.6-0.71c-3.85,0-8.28,0.71-8.32,0.72
		l-2.98,0.48l1.56-2.58c2.31-3.8,5.34-10.03,4.86-11.97c-0.48-1.95-6.08-6.03-9.9-8.3L5.79,54.9l2.86-0.97
		c4.21-1.43,10.53-4.25,11.41-6.05s-0.78-8.52-2.25-12.72l-0.99-2.85l2.81,1.09c0.07,0.03,7.45,2.88,11.36,2.88
		c0.75,0,1.12-0.11,1.27-0.18c1.83-0.81,4.88-7.03,6.46-11.19l1.07-2.82l1.45,2.64c2.14,3.9,6.01,9.64,7.94,10.19
		c0.09,0.03,0.26,0.06,0.54,0.06c2.94,0,9.37-3.23,11.59-4.48l2.63-1.47L63.37,32c-0.87,4.36-1.59,11.25-0.47,12.91
		s7.77,3.58,12.14,4.42L78,49.89l-2.35,1.89c-3.47,2.78-8.45,7.6-8.66,9.59s3.65,7.74,6.46,11.19l1.91,2.34l-3.01-0.07
		c-0.01,0-0.33-0.01-0.87-0.01c-6.02,0-10.81,0.72-11.92,1.79c-1.44,1.39-2.18,8.28-2.24,12.72l-0.04,3.02l-2.28-2
		c-3.25-2.85-8.77-6.86-10.87-6.86c-2.07,0.14-7.06,4.94-9.97,8.31l-1.97,2.28L31.73,91.1z"/>
</g>
<g>
	<path class="st0" d="M34.86,80.95c-0.47-3.04-1.63-7.69-2.75-8.51c-0.2-0.15-0.92-0.49-3.18-0.49c-2.67,0-5.73,0.49-5.76,0.5
		l-2.06,0.33L22.19,71c1.6-2.63,3.7-6.94,3.36-8.29s-4.21-4.17-6.85-5.75l-1.79-1.07l1.98-0.67c2.91-0.99,7.29-2.94,7.9-4.19
		c0.61-1.25-0.54-5.9-1.56-8.81l-0.69-1.97L26.48,41c0.05,0.02,5.16,1.99,7.87,1.99c0.52,0,0.77-0.08,0.88-0.12
		c1.27-0.56,3.38-4.87,4.47-7.75l0.74-1.95l1,1.83c1.48,2.7,4.16,6.67,5.5,7.06c0.07,0.02,0.18,0.04,0.38,0.04
		c2.03,0,6.49-2.24,8.03-3.1l1.82-1.02l-0.41,2.05c-0.6,3.02-1.1,7.79-0.32,8.94c0.78,1.15,5.38,2.48,8.41,3.06l2.05,0.39
		l-1.63,1.31c-2.4,1.93-5.85,5.26-5.99,6.64c-0.15,1.38,2.53,5.36,4.47,7.75l1.32,1.62l-2.09-0.05c-0.01,0-0.23-0.01-0.61-0.01
		c-4.17,0-7.49,0.5-8.25,1.24c-1,0.97-1.51,5.73-1.55,8.81l-0.03,2.09l-1.57-1.38c-2.25-1.97-6.07-4.75-7.53-4.75
		c-1.44,0.1-4.89,3.42-6.9,5.75l-1.36,1.58L34.86,80.95z"/>
</g>
<path class="st0" d="M76.72,17.36c3.46,2.11,16.23,0.1,16.23,0.1s-7.07,10.82-6.56,14.84c0.51,4.03,10.05,12.75,10.05,12.75
	s-12.87,1.22-15.7,4.14c-2.83,2.91-3.71,15.8-3.71,15.8s-8.98-9.3-13.02-9.69c-4.04-0.4-14.67,6.96-14.67,6.96S51,49.45,48.8,46.04
	c-2.2-3.4-14.56-7.14-14.56-7.14s11.05-6.68,12.34-10.54c1.28-3.85-3.52-15.85-3.52-15.85s12.12,4.47,15.93,3.08
	S69.18,2.97,69.18,2.97S73.25,15.24,76.72,17.36z"/>
<path class="st0" d="M73.87,22.78c2.44,1.49,11.42,0.07,11.42,0.07s-4.97,7.61-4.61,10.44s7.07,8.97,7.07,8.97
	s-9.05,0.86-11.04,2.91c-1.99,2.04-2.61,11.11-2.61,11.11s-6.32-6.54-9.16-6.82c-2.84-0.28-10.32,4.9-10.32,4.9
	s1.17-9.01-0.38-11.41c-1.55-2.39-10.25-5.03-10.25-5.03s7.78-4.7,8.68-7.41s-2.48-11.15-2.48-11.15s8.53,3.15,11.21,2.17
	s7.17-8.88,7.17-8.88S71.43,21.29,73.87,22.78z"/>
<g>
	<path class="st0" d="M31.73,91.1c-0.68-4.39-2.36-11.11-3.98-12.29c-0.3-0.21-1.34-0.71-4.6-0.71c-3.85,0-8.28,0.71-8.32,0.72
		l-2.98,0.48l1.56-2.58c2.31-3.8,5.34-10.03,4.86-11.97c-0.48-1.95-6.08-6.03-9.9-8.3L5.79,54.9l2.86-0.97
		c4.21-1.43,10.53-4.25,11.41-6.05s-0.78-8.52-2.25-12.72l-0.99-2.85l2.81,1.09c0.07,0.03,7.45,2.88,11.36,2.88
		c0.75,0,1.12-0.11,1.27-0.18c1.83-0.81,4.88-7.03,6.46-11.19l1.07-2.82l1.45,2.64c2.14,3.9,6.01,9.64,7.94,10.19
		c0.09,0.03,0.26,0.06,0.54,0.06c2.94,0,9.37-3.23,11.59-4.48l2.63-1.47L63.37,32c-0.87,4.36-1.59,11.25-0.47,12.91
		s7.77,3.58,12.14,4.42L78,49.89l-2.35,1.89c-3.47,2.78-8.45,7.6-8.66,9.59s3.65,7.74,6.46,11.19l1.91,2.34l-3.01-0.07
		c-0.01,0-0.33-0.01-0.87-0.01c-6.02,0-10.81,0.72-11.92,1.79c-1.44,1.39-2.18,8.28-2.24,12.72l-0.04,3.02l-2.28-2
		c-3.25-2.85-8.77-6.86-10.87-6.86c-2.07,0.14-7.06,4.94-9.97,8.31l-1.97,2.28L31.73,91.1z"/>
</g>
<g>
	<path class="st0" d="M34.86,80.95c-0.47-3.04-1.63-7.69-2.75-8.51c-0.2-0.15-0.92-0.49-3.18-0.49c-2.67,0-5.73,0.49-5.76,0.5
		l-2.06,0.33L22.19,71c1.6-2.63,3.7-6.94,3.36-8.29s-4.21-4.17-6.85-5.75l-1.79-1.07l1.98-0.67c2.91-0.99,7.29-2.94,7.9-4.19
		c0.61-1.25-0.54-5.9-1.56-8.81l-0.69-1.97L26.48,41c0.05,0.02,5.16,1.99,7.87,1.99c0.52,0,0.77-0.08,0.88-0.12
		c1.27-0.56,3.38-4.87,4.47-7.75l0.74-1.95l1,1.83c1.48,2.7,4.16,6.67,5.5,7.06c0.07,0.02,0.18,0.04,0.38,0.04
		c2.03,0,6.49-2.24,8.03-3.1l1.82-1.02l-0.41,2.05c-0.6,3.02-1.1,7.79-0.32,8.94c0.78,1.15,5.38,2.48,8.41,3.06l2.05,0.39
		l-1.63,1.31c-2.4,1.93-5.85,5.26-5.99,6.64c-0.15,1.38,2.53,5.36,4.47,7.75l1.32,1.62l-2.09-0.05c-0.01,0-0.23-0.01-0.61-0.01
		c-4.17,0-7.49,0.5-8.25,1.24c-1,0.97-1.51,5.73-1.55,8.81l-0.03,2.09l-1.57-1.38c-2.25-1.97-6.07-4.75-7.53-4.75
		c-1.44,0.1-4.89,3.42-6.9,5.75l-1.36,1.58L34.86,80.95z"/>
</g>
</svg>
