<?xml version="1.0" encoding="utf-8"?>
<!-- Generator: Adobe Illustrator 27.0.0, SVG Export Plug-In . SVG Version: 6.00 Build 0)  -->
<svg version="1.1" id="圖層_1" xmlns="http://www.w3.org/2000/svg" xmlns:xlink="http://www.w3.org/1999/xlink" x="0px" y="0px"
	 viewBox="0 0 68 70" style="enable-background:new 0 0 68 70;" xml:space="preserve">
<style type="text/css">
	.st0{fill:#554440;stroke:#994433;stroke-width:2;stroke-miterlimit:10;}
</style>
<path class="st0" d="M49.77,19.6c2.77,2.96,15.61,4.44,15.61,4.44s-9.71,8.53-10.29,12.55c-0.59,4.02,6.26,14.98,6.26,14.98
	s-12.72-2.27-16.23-0.22c-3.5,2.04-7.8,14.23-7.8,14.23s-6.16-11.36-9.95-12.82c-3.78-1.47-16,2.77-16,2.77s5.04-11.9,3.83-15.77
	S3.07,28.97,3.07,28.97s12.44-3.48,14.71-6.85c2.27-3.36,0.85-16.21,0.85-16.21s10.48,7.56,14.52,7.24
	c4.04-0.32,13.2-9.43,13.2-9.43S46.99,16.64,49.77,19.6z"/>
<path class="st0" d="M45.57,24.06c1.95,2.08,10.98,3.13,10.98,3.13s-6.83,6-7.24,8.83s4.41,10.54,4.41,10.54s-8.95-1.6-11.42-0.16
	C39.83,47.83,36.8,56.4,36.8,56.4s-4.34-7.99-7-9.02c-2.66-1.03-11.25,1.95-11.25,1.95s3.54-8.37,2.69-11.09
	c-0.85-2.72-8.52-7.59-8.52-7.59s8.75-2.45,10.35-4.82c1.6-2.36,0.6-11.41,0.6-11.41s7.37,5.32,10.22,5.09
	c2.84-0.22,9.29-6.64,9.29-6.64S43.61,21.97,45.57,24.06z"/>
</svg>
