<?xml version="1.0" encoding="utf-8"?>
<!-- Generator: Adobe Illustrator 27.0.0, SVG Export Plug-In . SVG Version: 6.00 Build 0)  -->
<svg version="1.1" id="圖層_1" xmlns="http://www.w3.org/2000/svg" xmlns:xlink="http://www.w3.org/1999/xlink" x="0px" y="0px"
	 viewBox="0 0 30 43" style="enable-background:new 0 0 30 43;" xml:space="preserve">
<style type="text/css">
	.st0{fill:#28292A;stroke:#663B33;stroke-width:2;stroke-miterlimit:10;}
</style>
<path class="st0" d="M25.95,34.67l-3.06-0.47L17.74,3.75c-0.2-1.17-1.21-2.02-2.4-2.01l-1.61,0.01c-1.19,0.01-2.19,0.88-2.37,2.05
	L6.67,34.33l-3.05,0.51c-1.15,0.19-1.99,1.2-1.98,2.36l0.02,2.67c0,0.31,0.26,0.57,0.57,0.56l25.19-0.19c0.32,0,0.57-0.26,0.57-0.57
	l-0.02-2.67C27.96,35.84,27.1,34.85,25.95,34.67z"/>
<line class="st0" x1="6.67" y1="34.33" x2="22.89" y2="34.21"/>
</svg>
